<svg width="73" height="57" viewBox="0 0 73 57" fill="none" xmlns="http://www.w3.org/2000/svg">
<rect x="1.46" y="1.46" width="70.08" height="54.08" rx="7.3" fill="white" stroke="black" stroke-width="2.92"/>
<path d="M58 1.52777H64.8611C68.2515 1.52777 71 4.27625 71 7.66666C71 11.0571 68.2515 13.8055 64.8611 13.8055H58V1.52777Z" fill="black"/>
<path d="M71.5 12.5H1" stroke="black" stroke-width="3"/>
<path d="M23.9844 31.2402C23.9844 31.3639 23.9421 31.4746 23.8574 31.5723C23.7793 31.6634 23.6816 31.7188 23.5645 31.7383C23.252 31.8099 22.9395 31.8685 22.627 31.9141C22.321 31.9596 22.0052 31.9889 21.6797 32.002C21.4974 33.3561 21.3151 34.5573 21.1328 35.6055C20.957 36.6536 20.7747 37.5944 20.5859 38.4277C20.3971 39.2546 20.2018 39.9935 20 40.6445C19.7982 41.2956 19.5833 41.901 19.3555 42.4609C19.1341 43.0208 18.8965 43.5579 18.6426 44.0723C18.3952 44.5801 18.1283 45.1042 17.8418 45.6445C17.8027 45.7161 17.7441 45.7747 17.666 45.8203C17.5944 45.8724 17.513 45.8984 17.4219 45.8984C17.2201 45.8984 17.0671 45.8268 16.9629 45.6836C16.5592 45.0977 16.1947 44.5117 15.8691 43.9258C15.5436 43.3398 15.2507 42.7767 14.9902 42.2363C14.7363 41.6895 14.5117 41.1751 14.3164 40.6934C14.1211 40.2051 13.9551 39.7689 13.8184 39.3848C13.4277 40.5176 13.0208 41.582 12.5977 42.5781C12.1745 43.5677 11.7025 44.528 11.1816 45.459C11.1426 45.5371 11.0807 45.6022 10.9961 45.6543C10.918 45.7129 10.8333 45.7422 10.7422 45.7422C10.5534 45.7422 10.4069 45.6543 10.3027 45.4785C9.73633 44.5605 9.23828 43.6296 8.80859 42.6855C8.37891 41.735 8.00456 40.8073 7.68555 39.9023C7.37305 38.9974 7.10612 38.1315 6.88477 37.3047C6.66341 36.4714 6.48112 35.7096 6.33789 35.0195C6.20117 34.3294 6.09375 33.7272 6.01562 33.2129C5.94401 32.6986 5.89193 32.3014 5.85938 32.0215C5.69661 32.0085 5.53711 31.9954 5.38086 31.9824C5.22461 31.9694 5.07161 31.9564 4.92188 31.9434C4.79167 31.9238 4.68099 31.8652 4.58984 31.7676C4.50521 31.6634 4.46289 31.5462 4.46289 31.416C4.48242 31.2598 4.54102 31.1393 4.63867 31.0547C4.73633 30.9635 4.85026 30.918 4.98047 30.918H5.01953C5.76172 30.9961 6.52344 31.0352 7.30469 31.0352C7.92969 31.0352 8.55143 31.0124 9.16992 30.9668C9.79492 30.9147 10.4004 30.8398 10.9863 30.7422H11.0645C11.2142 30.7422 11.3379 30.7943 11.4355 30.8984C11.5332 30.9961 11.582 31.11 11.582 31.2402C11.582 31.3704 11.5397 31.4844 11.4551 31.582C11.377 31.6797 11.2728 31.7383 11.1426 31.7578C10.8496 31.7969 10.5534 31.8359 10.2539 31.875C9.96094 31.9141 9.6582 31.9499 9.3457 31.9824C9.37174 32.2233 9.41081 32.5423 9.46289 32.9395C9.52148 33.3301 9.59635 33.776 9.6875 34.2773C9.77865 34.7721 9.88932 35.3125 10.0195 35.8984C10.1562 36.4779 10.3158 37.0801 10.498 37.7051C10.6868 38.3236 10.8984 38.9551 11.1328 39.5996C11.3737 40.2376 11.6439 40.8659 11.9434 41.4844C12.2493 40.7617 12.5358 40.0293 12.8027 39.2871C13.0762 38.5384 13.3171 37.7865 13.5254 37.0312C13.7337 36.276 13.9095 35.5208 14.0527 34.7656C14.196 34.0039 14.2936 33.2422 14.3457 32.4805C14.3587 32.3503 14.4076 32.2428 14.4922 32.1582C14.5833 32.0671 14.694 32.015 14.8242 32.002C14.9544 32.002 15.0684 32.041 15.166 32.1191C15.2637 32.1973 15.3288 32.2982 15.3613 32.4219C15.498 33.1771 15.6641 33.9323 15.8594 34.6875C16.0547 35.4362 16.2826 36.1979 16.543 36.9727C16.8099 37.7409 17.1094 38.5221 17.4414 39.3164C17.7734 40.1107 18.1413 40.9245 18.5449 41.7578C18.7402 41.2565 18.9258 40.7031 19.1016 40.0977C19.2839 39.4922 19.4596 38.8021 19.6289 38.0273C19.7982 37.2526 19.9674 36.3737 20.1367 35.3906C20.306 34.4076 20.4753 33.2845 20.6445 32.0215C20.3516 32.0085 20.0586 31.9889 19.7656 31.9629C19.4792 31.9303 19.1829 31.888 18.877 31.8359C18.7598 31.8164 18.6589 31.7611 18.5742 31.6699C18.4961 31.5723 18.457 31.4616 18.457 31.3379C18.457 31.1686 18.5124 31.0417 18.623 30.957C18.7402 30.8659 18.8542 30.8203 18.9648 30.8203H19.0625C19.7135 30.9375 20.3678 30.9961 21.0254 30.9961C21.416 30.9961 21.8034 30.9766 22.1875 30.9375C22.5716 30.8984 22.9557 30.8333 23.3398 30.7422H23.457C23.6003 30.7422 23.724 30.7943 23.8281 30.8984C23.9323 30.9961 23.9844 31.11 23.9844 31.2402ZM43.832 31.2402C43.832 31.3639 43.7897 31.4746 43.7051 31.5723C43.627 31.6634 43.5293 31.7188 43.4121 31.7383C43.0996 31.8099 42.7871 31.8685 42.4746 31.9141C42.1686 31.9596 41.8529 31.9889 41.5273 32.002C41.3451 33.3561 41.1628 34.5573 40.9805 35.6055C40.8047 36.6536 40.6224 37.5944 40.4336 38.4277C40.2448 39.2546 40.0495 39.9935 39.8477 40.6445C39.6458 41.2956 39.431 41.901 39.2031 42.4609C38.9818 43.0208 38.7441 43.5579 38.4902 44.0723C38.2428 44.5801 37.9759 45.1042 37.6895 45.6445C37.6504 45.7161 37.5918 45.7747 37.5137 45.8203C37.4421 45.8724 37.3607 45.8984 37.2695 45.8984C37.0677 45.8984 36.9147 45.8268 36.8105 45.6836C36.4069 45.0977 36.0423 44.5117 35.7168 43.9258C35.3913 43.3398 35.0983 42.7767 34.8379 42.2363C34.584 41.6895 34.3594 41.1751 34.1641 40.6934C33.9688 40.2051 33.8027 39.7689 33.666 39.3848C33.2754 40.5176 32.8685 41.582 32.4453 42.5781C32.0221 43.5677 31.5501 44.528 31.0293 45.459C30.9902 45.5371 30.9284 45.6022 30.8438 45.6543C30.7656 45.7129 30.681 45.7422 30.5898 45.7422C30.401 45.7422 30.2546 45.6543 30.1504 45.4785C29.584 44.5605 29.0859 43.6296 28.6562 42.6855C28.2266 41.735 27.8522 40.8073 27.5332 39.9023C27.2207 38.9974 26.9538 38.1315 26.7324 37.3047C26.5111 36.4714 26.3288 35.7096 26.1855 35.0195C26.0488 34.3294 25.9414 33.7272 25.8633 33.2129C25.7917 32.6986 25.7396 32.3014 25.707 32.0215C25.5443 32.0085 25.3848 31.9954 25.2285 31.9824C25.0723 31.9694 24.9193 31.9564 24.7695 31.9434C24.6393 31.9238 24.5286 31.8652 24.4375 31.7676C24.3529 31.6634 24.3105 31.5462 24.3105 31.416C24.3301 31.2598 24.3887 31.1393 24.4863 31.0547C24.584 30.9635 24.6979 30.918 24.8281 30.918H24.8672C25.6094 30.9961 26.3711 31.0352 27.1523 31.0352C27.7773 31.0352 28.3991 31.0124 29.0176 30.9668C29.6426 30.9147 30.248 30.8398 30.834 30.7422H30.9121C31.0618 30.7422 31.1855 30.7943 31.2832 30.8984C31.3809 30.9961 31.4297 31.11 31.4297 31.2402C31.4297 31.3704 31.3874 31.4844 31.3027 31.582C31.2246 31.6797 31.1204 31.7383 30.9902 31.7578C30.6973 31.7969 30.401 31.8359 30.1016 31.875C29.8086 31.9141 29.5059 31.9499 29.1934 31.9824C29.2194 32.2233 29.2585 32.5423 29.3105 32.9395C29.3691 33.3301 29.444 33.776 29.5352 34.2773C29.6263 34.7721 29.737 35.3125 29.8672 35.8984C30.0039 36.4779 30.1634 37.0801 30.3457 37.7051C30.5345 38.3236 30.7461 38.9551 30.9805 39.5996C31.2214 40.2376 31.4915 40.8659 31.791 41.4844C32.097 40.7617 32.3835 40.0293 32.6504 39.2871C32.9238 38.5384 33.1647 37.7865 33.373 37.0312C33.5814 36.276 33.7572 35.5208 33.9004 34.7656C34.0436 34.0039 34.1413 33.2422 34.1934 32.4805C34.2064 32.3503 34.2552 32.2428 34.3398 32.1582C34.431 32.0671 34.5417 32.015 34.6719 32.002C34.8021 32.002 34.916 32.041 35.0137 32.1191C35.1113 32.1973 35.1764 32.2982 35.209 32.4219C35.3457 33.1771 35.5117 33.9323 35.707 34.6875C35.9023 35.4362 36.1302 36.1979 36.3906 36.9727C36.6576 37.7409 36.957 38.5221 37.2891 39.3164C37.6211 40.1107 37.9889 40.9245 38.3926 41.7578C38.5879 41.2565 38.7734 40.7031 38.9492 40.0977C39.1315 39.4922 39.3073 38.8021 39.4766 38.0273C39.6458 37.2526 39.8151 36.3737 39.9844 35.3906C40.1536 34.4076 40.3229 33.2845 40.4922 32.0215C40.1992 32.0085 39.9062 31.9889 39.6133 31.9629C39.3268 31.9303 39.0306 31.888 38.7246 31.8359C38.6074 31.8164 38.5065 31.7611 38.4219 31.6699C38.3438 31.5723 38.3047 31.4616 38.3047 31.3379C38.3047 31.1686 38.36 31.0417 38.4707 30.957C38.5879 30.8659 38.7018 30.8203 38.8125 30.8203H38.9102C39.5612 30.9375 40.2155 30.9961 40.873 30.9961C41.2637 30.9961 41.651 30.9766 42.0352 30.9375C42.4193 30.8984 42.8034 30.8333 43.1875 30.7422H43.3047C43.4479 30.7422 43.5716 30.7943 43.6758 30.8984C43.7799 30.9961 43.832 31.11 43.832 31.2402ZM63.6797 31.2402C63.6797 31.3639 63.6374 31.4746 63.5527 31.5723C63.4746 31.6634 63.377 31.7188 63.2598 31.7383C62.9473 31.8099 62.6348 31.8685 62.3223 31.9141C62.0163 31.9596 61.7005 31.9889 61.375 32.002C61.1927 33.3561 61.0104 34.5573 60.8281 35.6055C60.6523 36.6536 60.4701 37.5944 60.2812 38.4277C60.0924 39.2546 59.8971 39.9935 59.6953 40.6445C59.4935 41.2956 59.2786 41.901 59.0508 42.4609C58.8294 43.0208 58.5918 43.5579 58.3379 44.0723C58.0905 44.5801 57.8236 45.1042 57.5371 45.6445C57.498 45.7161 57.4395 45.7747 57.3613 45.8203C57.2897 45.8724 57.2083 45.8984 57.1172 45.8984C56.9154 45.8984 56.7624 45.8268 56.6582 45.6836C56.2546 45.0977 55.89 44.5117 55.5645 43.9258C55.2389 43.3398 54.946 42.7767 54.6855 42.2363C54.4316 41.6895 54.207 41.1751 54.0117 40.6934C53.8164 40.2051 53.6504 39.7689 53.5137 39.3848C53.123 40.5176 52.7161 41.582 52.293 42.5781C51.8698 43.5677 51.3978 44.528 50.877 45.459C50.8379 45.5371 50.776 45.6022 50.6914 45.6543C50.6133 45.7129 50.5286 45.7422 50.4375 45.7422C50.2487 45.7422 50.1022 45.6543 49.998 45.4785C49.4316 44.5605 48.9336 43.6296 48.5039 42.6855C48.0742 41.735 47.6999 40.8073 47.3809 39.9023C47.0684 38.9974 46.8014 38.1315 46.5801 37.3047C46.3587 36.4714 46.1764 35.7096 46.0332 35.0195C45.8965 34.3294 45.7891 33.7272 45.7109 33.2129C45.6393 32.6986 45.5872 32.3014 45.5547 32.0215C45.3919 32.0085 45.2324 31.9954 45.0762 31.9824C44.9199 31.9694 44.7669 31.9564 44.6172 31.9434C44.487 31.9238 44.3763 31.8652 44.2852 31.7676C44.2005 31.6634 44.1582 31.5462 44.1582 31.416C44.1777 31.2598 44.2363 31.1393 44.334 31.0547C44.4316 30.9635 44.5456 30.918 44.6758 30.918H44.7148C45.457 30.9961 46.2188 31.0352 47 31.0352C47.625 31.0352 48.2467 31.0124 48.8652 30.9668C49.4902 30.9147 50.0957 30.8398 50.6816 30.7422H50.7598C50.9095 30.7422 51.0332 30.7943 51.1309 30.8984C51.2285 30.9961 51.2773 31.11 51.2773 31.2402C51.2773 31.3704 51.235 31.4844 51.1504 31.582C51.0723 31.6797 50.9681 31.7383 50.8379 31.7578C50.5449 31.7969 50.2487 31.8359 49.9492 31.875C49.6562 31.9141 49.3535 31.9499 49.041 31.9824C49.0671 32.2233 49.1061 32.5423 49.1582 32.9395C49.2168 33.3301 49.2917 33.776 49.3828 34.2773C49.474 34.7721 49.5846 35.3125 49.7148 35.8984C49.8516 36.4779 50.0111 37.0801 50.1934 37.7051C50.3822 38.3236 50.5938 38.9551 50.8281 39.5996C51.069 40.2376 51.3392 40.8659 51.6387 41.4844C51.9447 40.7617 52.2311 40.0293 52.498 39.2871C52.7715 38.5384 53.0124 37.7865 53.2207 37.0312C53.429 36.276 53.6048 35.5208 53.748 34.7656C53.8913 34.0039 53.9889 33.2422 54.041 32.4805C54.054 32.3503 54.1029 32.2428 54.1875 32.1582C54.2786 32.0671 54.3893 32.015 54.5195 32.002C54.6497 32.002 54.7637 32.041 54.8613 32.1191C54.959 32.1973 55.0241 32.2982 55.0566 32.4219C55.1934 33.1771 55.3594 33.9323 55.5547 34.6875C55.75 35.4362 55.9779 36.1979 56.2383 36.9727C56.5052 37.7409 56.8047 38.5221 57.1367 39.3164C57.4688 40.1107 57.8366 40.9245 58.2402 41.7578C58.4355 41.2565 58.6211 40.7031 58.7969 40.0977C58.9792 39.4922 59.1549 38.8021 59.3242 38.0273C59.4935 37.2526 59.6628 36.3737 59.832 35.3906C60.0013 34.4076 60.1706 33.2845 60.3398 32.0215C60.0469 32.0085 59.7539 31.9889 59.4609 31.9629C59.1745 31.9303 58.8783 31.888 58.5723 31.8359C58.4551 31.8164 58.3542 31.7611 58.2695 31.6699C58.1914 31.5723 58.1523 31.4616 58.1523 31.3379C58.1523 31.1686 58.2077 31.0417 58.3184 30.957C58.4355 30.8659 58.5495 30.8203 58.6602 30.8203H58.7578C59.4089 30.9375 60.0632 30.9961 60.7207 30.9961C61.1113 30.9961 61.4987 30.9766 61.8828 30.9375C62.2669 30.8984 62.651 30.8333 63.0352 30.7422H63.1523C63.2956 30.7422 63.4193 30.7943 63.5234 30.8984C63.6276 30.9961 63.6797 31.11 63.6797 31.2402ZM67.5312 43.9355C67.5312 44.1439 67.4922 44.3392 67.4141 44.5215C67.3359 44.7038 67.2285 44.8633 67.0918 45C66.9616 45.1367 66.8053 45.2441 66.623 45.3223C66.4408 45.4004 66.2454 45.4395 66.0371 45.4395C65.8288 45.4395 65.6335 45.4004 65.4512 45.3223C65.2689 45.2441 65.1094 45.1367 64.9727 45C64.8359 44.8633 64.7285 44.7038 64.6504 44.5215C64.5723 44.3392 64.5332 44.1439 64.5332 43.9355C64.5332 43.7337 64.5723 43.5417 64.6504 43.3594C64.7285 43.1771 64.8359 43.0208 64.9727 42.8906C65.1094 42.7604 65.2689 42.6562 65.4512 42.5781C65.6335 42.5 65.8288 42.4609 66.0371 42.4609C66.2454 42.4609 66.4408 42.5 66.623 42.5781C66.8053 42.6562 66.9616 42.7604 67.0918 42.8906C67.2285 43.0208 67.3359 43.1771 67.4141 43.3594C67.4922 43.5417 67.5312 43.7337 67.5312 43.9355Z" fill="black"/>
<ellipse cx="65" cy="7.04167" rx="5.5" ry="5.04167" fill="white"/>
</svg>
